<svg width="18" height="20" viewBox="0 0 18 20" fill="none" xmlns="http://www.w3.org/2000/svg">
<path fill-rule="evenodd" clip-rule="evenodd" d="M16.2501 2.5H15.0001V1.25C15.0001 0.5625 14.4376 0 13.7501 0C13.0626 0 12.5001 0.5625 12.5001 1.25V2.5H11.2501C10.5626 2.5 10.0001 3.0625 10.0001 3.75C10.0001 4.4375 10.5626 5 11.2501 5H12.5001V6.25C12.5001 6.9375 13.0626 7.5 13.7501 7.5C14.4376 7.5 15.0001 6.9375 15.0001 6.25V5H16.2501C16.9376 5 17.5001 4.4375 17.5001 3.75C17.5001 3.0625 16.9376 2.5 16.2501 2.5ZM12.275 8.5C11.8875 9.3875 11.025 10 10 10H7.5C6.5875 10 5.7375 10.25 5 10.6875V7.275C6.45 6.75 7.5 5.375 7.5 3.75C7.5 1.675 5.825 0 3.75 0C1.675 0 0 1.675 0 3.75C0 5.375 1.05 6.75 2.5 7.275V12.7375C1.05 13.2375 0 14.625 0 16.25C0 18.325 1.675 20 3.75 20C5.825 20 7.5 18.325 7.5 16.25C7.5 14.95 6.8375 13.8125 5.85 13.1375C6.2875 12.75 6.8625 12.5 7.5 12.5H10C12.375 12.5 14.3625 10.8375 14.8625 8.6125C14.5 8.7 14.1375 8.75 13.75 8.75C13.2375 8.75 12.75 8.65 12.275 8.5ZM3.75024 2.49998C4.43774 2.49998 5.00024 3.06248 5.00024 3.74998C5.00024 4.43748 4.43774 4.99998 3.75024 4.99998C3.06274 4.99998 2.50024 4.43748 2.50024 3.74998C2.50024 3.06248 3.06274 2.49998 3.75024 2.49998ZM3.75024 17.5C3.06274 17.5 2.50024 16.9375 2.50024 16.25C2.50024 15.5625 3.06274 15 3.75024 15C4.43774 15 5.00024 15.5625 5.00024 16.25C5.00024 16.9375 4.43774 17.5 3.75024 17.5Z" fill="#A7B6C2"/>
</svg>
