<svg width="32" height="14" viewBox="0 0 32 14" fill="none" xmlns="http://www.w3.org/2000/svg">
<path d="M6.6047 10.3259C5.98836 10.3564 5.38046 10.1732 4.88466 9.80754C4.38886 9.44186 4.03586 8.91634 3.88585 8.32059C4.23557 9.98352 6.12699 11.61 12.095 12.3346C15.719 12.9268 19.4378 12.2805 22.6458 10.501C22.6458 10.501 23.4835 10.1348 22.9806 10.7012C22.9806 10.7012 19.4298 13.9691 12.4664 13.9998C5.50299 14.0305 -0.0341272 10.5352 0.000158362 7.00116C-0.0329843 3.46715 5.4927 -0.0338756 12.4572 0.000247425C19.4218 0.0343705 22.9715 3.29881 22.9715 3.29881C23.4743 3.86753 22.6366 3.499 22.6366 3.499C21.3978 2.70279 17.7384 1.1229 12.0858 1.66545C6.5247 2.19891 4.71099 4.07909 4.10757 5.34505C3.89379 5.78661 3.77025 6.26602 3.74414 6.75548C3.77624 6.03054 4.0942 5.34742 4.62906 4.85427C5.16392 4.36113 5.87255 4.09772 6.60127 4.12118C7.00128 4.11694 7.39775 4.19611 7.76515 4.35361C8.13255 4.5111 8.46274 4.74342 8.73447 5.03561C9.00619 5.3278 9.21343 5.67338 9.34284 6.05011C9.47225 6.42684 9.52095 6.82636 9.48583 7.22296C9.52076 7.61912 9.47202 8.01818 9.34273 8.39448C9.21344 8.77077 9.00647 9.11598 8.73512 9.4079C8.46376 9.69982 8.13403 9.932 7.76713 10.0895C7.40022 10.247 7.00426 10.3264 6.6047 10.3225V10.3259ZM29.0583 9.10428H32V10.1701H27.8217V4.28155H29.0583V9.10428ZM24.5189 7.00116H26.9909V10.1757H26.1715L26.048 9.43755C25.8384 9.72634 25.5603 9.95907 25.2385 10.1151C24.9167 10.271 24.5611 10.3454 24.2035 10.3316C23.8141 10.3289 23.4298 10.2442 23.0756 10.0831C22.7215 9.92206 22.4057 9.6882 22.1489 9.39693C21.8921 9.10567 21.7001 8.7636 21.5856 8.39323C21.4711 8.02285 21.4367 7.63255 21.4846 7.24798C21.4431 6.84872 21.4875 6.44525 21.6149 6.0644C21.7423 5.68356 21.9497 5.33408 22.2234 5.03924C22.497 4.74439 22.8306 4.51093 23.202 4.3544C23.5734 4.19787 23.974 4.12185 24.3772 4.13141C24.9833 4.06074 25.5932 4.22788 26.0776 4.59738C26.5619 4.96688 26.8826 5.50966 26.9715 6.11055H25.7315C25.6578 5.82725 25.4897 5.57722 25.2547 5.40137C25.0197 5.22553 24.7317 5.13429 24.4378 5.14259C23.5566 5.14259 22.7406 5.74998 22.7406 7.25822C22.7406 8.86542 23.6218 9.28399 24.4618 9.28399C24.8182 9.27894 25.1606 9.1445 25.4245 8.90594C25.6884 8.66738 25.8557 8.34112 25.8949 7.98845H24.5235V7.00116H24.5189ZM6.60698 4.84003C6.30843 4.84702 6.0147 4.91654 5.74495 5.04406C5.47519 5.17158 5.23546 5.35424 5.04138 5.58013C4.84729 5.80603 4.70321 6.07009 4.61852 6.35511C4.53383 6.64013 4.51043 6.93971 4.54985 7.23433C4.51043 7.52896 4.53383 7.82854 4.61852 8.11356C4.70321 8.39858 4.84729 8.66264 5.04138 8.88854C5.23546 9.11443 5.47519 9.29709 5.74495 9.42461C6.0147 9.55213 6.30843 9.62165 6.60698 9.62864C6.90554 9.62165 7.19926 9.55213 7.46902 9.42461C7.73878 9.29709 7.97851 9.11443 8.17259 8.88854C8.36667 8.66264 8.51076 8.39858 8.59545 8.11356C8.68014 7.82854 8.70354 7.52896 8.66412 7.23433C8.70354 6.93971 8.68014 6.64013 8.59545 6.35511C8.51076 6.07009 8.36667 5.80603 8.17259 5.58013C7.97851 5.35424 7.73878 5.17158 7.46902 5.04406C7.19926 4.91654 6.90554 4.84702 6.60698 4.84003ZM9.93382 6.41311H10.5338V6.94543H10.5487C10.6622 6.74825 10.8267 6.5849 11.025 6.4723C11.2234 6.3597 11.4484 6.30195 11.6767 6.30505C11.917 6.31345 12.1531 6.36999 12.371 6.4713C12.5889 6.57261 12.784 6.7166 12.9446 6.89467C13.1053 7.07273 13.2283 7.28122 13.3061 7.50765C13.384 7.73409 13.4152 7.97382 13.3978 8.21253C13.4211 8.46801 13.3922 8.72554 13.3131 8.96967C13.2339 9.2138 13.106 9.4395 12.9371 9.63324C12.7681 9.82698 12.5616 9.98477 12.3299 10.0971C12.0982 10.2095 11.8461 10.2742 11.5887 10.2872C11.3916 10.2968 11.1954 10.2554 11.0191 10.1671C10.8429 10.0788 10.6926 9.94658 10.583 9.78333H10.5681V11.6646H9.93154V6.40856L9.93382 6.41311ZM11.543 9.731C12.2378 9.731 12.7075 9.13158 12.7075 8.30466C12.7075 7.82239 12.5121 6.86694 11.5281 6.86694C10.6138 6.86694 10.5075 7.8531 10.5075 8.46618C10.5075 9.46712 11.1372 9.73328 11.5418 9.73328L11.543 9.731ZM17.2572 8.9894C17.1886 9.3777 16.9754 9.726 16.6602 9.96484C16.3451 10.2037 15.951 10.3155 15.5567 10.2781C15.3165 10.2789 15.0789 10.229 14.8596 10.1318C14.6402 10.0345 14.4441 9.89211 14.2841 9.71393C14.124 9.53574 14.0038 9.32582 13.9312 9.09801C13.8586 8.87019 13.8353 8.62965 13.8629 8.39224C13.8629 7.22637 14.4275 6.29709 15.6778 6.29709C16.7704 6.29709 17.3052 7.16154 17.3052 8.49348H14.5384C14.5384 9.27831 14.9075 9.73214 15.6378 9.73214C15.8619 9.74126 16.0821 9.67212 16.2603 9.53668C16.4385 9.40125 16.5636 9.20805 16.6138 8.99054H17.2572V8.9894ZM16.5829 7.98845C16.5464 7.40495 16.3006 6.86581 15.5269 6.86581C15.2402 6.88165 14.9707 7.00742 14.7751 7.21674C14.5795 7.42605 14.4729 7.70264 14.4778 7.98845H16.5829ZM20.8263 10.1689H20.1898V7.85537C20.1898 7.20021 20.0012 6.86922 19.3795 6.86922C19.0172 6.86922 18.3806 7.0967 18.3806 8.1204V10.1678H17.7441V6.40856H18.3441V6.94088H18.3589C18.4805 6.74762 18.6488 6.58777 18.8484 6.47591C19.0481 6.36404 19.2727 6.30374 19.5018 6.3005C19.6799 6.28036 19.8603 6.30034 20.0296 6.35897C20.1989 6.41759 20.3527 6.51336 20.4798 6.63918C20.6069 6.76501 20.7039 6.91766 20.7637 7.08585C20.8235 7.25404 20.8445 7.43346 20.8252 7.61083V10.1735" fill="#4386B5"/>
</svg>
