<svg width="16" height="16" viewBox="0 0 16 16" fill="none" xmlns="http://www.w3.org/2000/svg">
<path fill-rule="evenodd" clip-rule="evenodd" d="M5.63777 12.2259C5.9013 12.2259 6.13659 12.1224 6.306 11.9529L11.9531 6.30588C12.1225 6.13647 12.226 5.90117 12.226 5.63765C12.226 5.12 11.8025 4.69647 11.2848 4.69647C11.0213 4.69647 10.786 4.8 10.6166 4.96941L4.96953 10.6165C4.80012 10.7859 4.69659 11.0212 4.69659 11.2847C4.69659 11.8024 5.12012 12.2259 5.63777 12.2259ZM9.2613 10.3247L6.96483 12.6212L6.02365 13.5624L6.01424 13.5529C5.67541 13.8918 5.21424 14.1176 4.69659 14.1176C3.6613 14.1176 2.81424 13.2706 2.81424 12.2353C2.81424 11.7176 3.04012 11.2565 3.37894 10.9176L3.36953 10.9082L4.31071 9.96706L6.60718 7.67059C6.29659 7.57647 5.97659 7.52 5.63777 7.52C4.60247 7.52 3.67071 7.95294 2.99306 8.64L2.97424 8.62117L2.03306 9.56235L2.05188 9.58117C1.36483 10.2588 0.931885 11.1906 0.931885 12.2259C0.931885 14.3059 2.61659 15.9906 4.69659 15.9906C5.73188 15.9906 6.66365 15.5576 7.3413 14.8706L7.36012 14.8894L8.3013 13.9482L8.28247 13.9294C8.96953 13.2518 9.40247 12.32 9.40247 11.2847C9.40247 10.9553 9.346 10.6353 9.2613 10.3247ZM15.9907 4.69647C15.9907 2.61647 14.306 0.931763 12.226 0.931763C11.1907 0.931763 10.2589 1.3647 9.5813 2.05176L9.56247 2.03294L8.6213 2.97412L8.64012 2.99294C7.96247 3.67059 7.52012 4.60235 7.52012 5.63765C7.52012 5.97647 7.57659 6.28706 7.6613 6.59765L9.95777 4.30117L10.8989 3.36L10.9084 3.36941C11.2472 3.03059 11.7084 2.8047 12.226 2.8047C13.2613 2.8047 14.1084 3.65176 14.1084 4.68706C14.1084 5.2047 13.8825 5.66588 13.5436 6.0047L13.5531 6.01412L12.6119 6.95529L10.3248 9.26117C10.6354 9.34588 10.9554 9.40235 11.2848 9.40235C12.3201 9.40235 13.2519 8.96941 13.9295 8.28235L13.9484 8.30117L14.8895 7.36L14.8707 7.34117C15.5578 6.66353 15.9907 5.74117 15.9907 4.69647Z" fill="#A7B6C2"/>
</svg>
