<svg width="16" height="16" viewBox="0 0 16 16" fill="none" xmlns="http://www.w3.org/2000/svg">
<path fill-rule="evenodd" clip-rule="evenodd" d="M4 6C4.28 6 4.53 5.89 4.71 5.71L7 3.41V11C7 11.55 7.45 12 8 12C8.55 12 9 11.55 9 11V3.41L11.29 5.7C11.47 5.89 11.72 6 12 6C12.55 6 13 5.55 13 5C13 4.72 12.89 4.47 12.71 4.29L8.71 0.29C8.53 0.11 8.28 0 8 0C7.72 0 7.47 0.11 7.29 0.29L3.29 4.29C3.11 4.47 3 4.72 3 5C3 5.55 3.45 6 4 6ZM15 11C14.45 11 14 11.45 14 12V14H2V12C2 11.45 1.55 11 1 11C0.45 11 0 11.45 0 12V15C0 15.55 0.45 16 1 16H15C15.55 16 16 15.55 16 15V12C16 11.45 15.55 11 15 11Z" fill="#48AFF0"/>
</svg>
