<svg width="18" height="19" viewBox="0 0 18 19" fill="none" xmlns="http://www.w3.org/2000/svg">
<path fill-rule="evenodd" clip-rule="evenodd" d="M8.98923 0.655518C4.07812 0.655518 0.100342 4.6333 0.100342 9.54441C0.100342 9.8333 0.111453 10.1222 0.144786 10.4111C0.155897 10.5111 0.17812 10.6111 0.189231 10.7222C0.211453 10.8889 0.233675 11.0666 0.267008 11.2444C0.289231 11.3666 0.322564 11.4889 0.355897 11.6222C0.389231 11.7666 0.422564 11.9111 0.467009 12.0444C0.511453 12.1777 0.555897 12.3222 0.600342 12.4555C0.644786 12.5777 0.689231 12.6889 0.733675 12.8111C0.789231 12.9555 0.855897 13.1 0.922564 13.2444C0.967009 13.3444 1.01145 13.4333 1.06701 13.5333C1.14479 13.6889 1.22256 13.8333 1.31145 13.9777C1.3559 14.0555 1.40034 14.1222 1.44479 14.2C1.54479 14.3555 1.64479 14.5111 1.74479 14.6666C1.77812 14.7111 1.82256 14.7666 1.8559 14.8111C2.91145 16.2444 4.38923 17.3555 6.11145 17.9444C6.14479 17.9555 6.16701 17.9666 6.18923 17.9777C6.60034 18.1111 7.02257 18.2222 7.4559 18.3C7.53368 18.3111 7.60034 18.3222 7.67812 18.3333C8.11145 18.4 8.5559 18.4444 9.01145 18.4444C9.46701 18.4444 9.91146 18.4 10.3448 18.3333C10.4226 18.3222 10.4892 18.3111 10.567 18.3C11.0003 18.2222 11.4226 18.1222 11.8337 17.9777C11.867 17.9666 11.8892 17.9555 11.9115 17.9444C13.6337 17.3444 15.1115 16.2444 16.167 14.8111C16.2003 14.7666 16.2337 14.7222 16.267 14.6666C16.3781 14.5111 16.4781 14.3555 16.5781 14.2C16.6226 14.1222 16.667 14.0555 16.7115 13.9777C16.8003 13.8333 16.8781 13.6777 16.9559 13.5222C17.0003 13.4333 17.0448 13.3333 17.0892 13.2333C17.1559 13.0889 17.2115 12.9444 17.2781 12.8C17.3226 12.6889 17.367 12.5666 17.4115 12.4444C17.4559 12.3111 17.5003 12.1777 17.5448 12.0333C17.5892 11.8889 17.6226 11.7555 17.6559 11.6111C17.6892 11.4889 17.7226 11.3666 17.7448 11.2333C17.7781 11.0555 17.8003 10.8889 17.8226 10.7111C17.8337 10.6111 17.8559 10.5111 17.867 10.4C17.8892 10.1111 17.9115 9.8333 17.9115 9.5333C17.8781 4.6333 13.9003 0.655518 8.98923 0.655518ZM8.98922 16.6555C6.78922 16.6555 4.82256 15.6555 3.52256 14.0888C4.267 13.6888 5.17811 13.3555 5.90033 13.0333C7.18922 12.4555 7.05589 12.1 7.10033 11.6222C7.11144 11.5555 7.11144 11.5 7.11144 11.4333C6.65589 11.0333 6.28922 10.4777 6.04478 9.83329V9.82218C6.04478 9.81107 6.03367 9.79996 6.03367 9.79996C5.97811 9.65551 5.93367 9.51107 5.90033 9.36662C5.58922 9.31107 5.41144 8.97774 5.34478 8.66663C5.27811 8.5444 5.14478 8.2444 5.17811 7.89996C5.22256 7.4444 5.40033 7.2444 5.60033 7.15551C5.60033 7.13329 5.60033 7.11107 5.60033 7.08885C5.60033 6.52218 5.65589 5.71107 5.75589 5.17774C5.77811 5.03329 5.81144 4.88885 5.85589 4.7444C6.04478 4.08885 6.44478 3.49996 6.97811 3.08885C7.52255 2.66662 8.30033 2.43329 9.00033 2.43329C9.68922 2.43329 10.467 2.65551 11.0226 3.08885C11.5559 3.49996 11.9559 4.08885 12.1448 4.7444C12.1892 4.88885 12.2226 5.03329 12.2448 5.18885C12.3448 5.72218 12.4003 6.53329 12.4003 7.09996C12.4003 7.12218 12.4003 7.15551 12.4003 7.17774C12.6003 7.26662 12.767 7.46662 12.8114 7.91107C12.8448 8.25551 12.7003 8.55551 12.6337 8.67774C12.567 8.97774 12.4003 9.31107 12.1003 9.36662C12.067 9.51107 12.0226 9.65551 11.967 9.78885C11.967 9.79996 11.9559 9.83329 11.9559 9.83329C11.7226 10.4666 11.3559 11.0111 10.9114 11.4111C10.9114 11.4777 10.9226 11.5555 10.9226 11.6222C10.967 12.1 10.7892 12.4555 12.0892 13.0333C12.8114 13.3555 13.7226 13.7 14.467 14.0888C13.1559 15.6555 11.1892 16.6555 8.98922 16.6555Z" fill="#A7B6C2"/>
</svg>
